<?xml version="1.0" encoding="UTF-8" standalone="no"?>
<!-- Created with Inkscape (http://www.inkscape.org/) -->

<svg
   xmlns:dc="http://purl.org/dc/elements/1.1/"
   xmlns:cc="http://creativecommons.org/ns#"
   xmlns:rdf="http://www.w3.org/1999/02/22-rdf-syntax-ns#"
   xmlns:svg="http://www.w3.org/2000/svg"
   xmlns="http://www.w3.org/2000/svg"
   xmlns:sodipodi="http://sodipodi.sourceforge.net/DTD/sodipodi-0.dtd"
   xmlns:inkscape="http://www.inkscape.org/namespaces/inkscape"
   width="100px"
   height="100px"
   viewBox="0 0 100 100"
   version="1.1"
   id="SVGRoot"
   inkscape:version="0.92.4 (5da689c313, 2019-01-14)"
   sodipodi:docname="lietuvos-socialdemokratu-lsdp-logo-svg.svg">
  <defs
     id="defs850" />
  <sodipodi:namedview
     id="base"
     pagecolor="#ffffff"
     bordercolor="#666666"
     borderopacity="1.0"
     inkscape:pageopacity="0.0"
     inkscape:pageshadow="2"
     inkscape:zoom="5.6568543"
     inkscape:cx="41.527302"
     inkscape:cy="45.343187"
     inkscape:document-units="px"
     inkscape:current-layer="layer1"
     showgrid="false"
     inkscape:window-width="1920"
     inkscape:window-height="1001"
     inkscape:window-x="-9"
     inkscape:window-y="-9"
     inkscape:window-maximized="1"
     inkscape:grid-bbox="true"
     showguides="true"
     inkscape:guide-bbox="true">
    <sodipodi:guide
       position="49.640422,50.264163"
       orientation="1,0"
       id="guide1522"
       inkscape:locked="false" />
    <sodipodi:guide
       position="-30.25,50"
       orientation="0,1"
       id="guide1524"
       inkscape:locked="false" />
  </sodipodi:namedview>
  <metadata
     id="metadata853">
    <rdf:RDF>
      <cc:Work
         rdf:about="">
        <dc:format>image/svg+xml</dc:format>
        <dc:type
           rdf:resource="http://purl.org/dc/dcmitype/StillImage" />
        <dc:title></dc:title>
      </cc:Work>
    </rdf:RDF>
  </metadata>
  <g
     inkscape:label="Layer 1"
     inkscape:groupmode="layer"
     id="layer1">
    <g
       id="g1779"
       transform="matrix(0.3942712,0,0,0.3942712,19.221648,44.516159)">
      <path
         sodipodi:nodetypes="cccccccccccccccccccccccccccccccccccccccccc"
         inkscape:connector-curvature="0"
         id="path1603"
         d="m 38.863567,41.519338 c -0.873483,-9.22843 -2.321397,-17.566902 1.515232,-34.0926216 2.57283,-8.542828 4.478861,-16.635439 11.932429,-28.4736764 9.434688,-12.490167 18.662458,-25.388749 30.947848,-32.252258 10.61149,-5.085355 21.409974,-8.0016 32.857154,-3.392882 7.61645,5.489915 10.55297,14.255811 13.21428,23.214312 1.61895,7.372535 3.6371,15.064441 3.66072,21.160706 3.28443,-7.019868 6.85585,-13.995629 8.03571,-21.339289 3.02447,-9.165694 3.7474,-20.653153 -3.03571,-29.642872 -8.50153,-10.296907 -19.56221,-8.924636 -29.10715,-8.749984 -10.177264,2.074242 -20.545764,4.93731 -32.053574,12.499993 -15.10971,9.745625 -25.347969,20.446451 -31.874998,31.874986 C 38.520454,-17.633668 33.52269,-6.5913246 32.613249,7.3004424 19.878898,9.0742124 6.8006444,12.429904 -7.6034526,21.884505 -21.667642,30.259748 -30.069407,40.667628 -37.655482,51.368338 c 11.342709,0.96484 21.979714,2.76143 28.6630714,9.21766 7.824416,7.14701 15.425673,14.96349 23.5491776,21.2132 11.461788,8.46388 23.107057,15.82685 35.734153,17.29886 7.203038,1.262252 14.951306,2.148062 29.105016,-1.38897 6.38845,-1.82453 11.66759,-4.57346 16.03617,-8.0812 6.406584,1.94616 13.004294,1.4075 19.571714,1.26267 14.96395,-0.80077 23.75748,-5.83268 33.01936,-10.54345 10.53991,-6.45899 17.77406,-13.10124 22.41275,-19.88738 8.22736,-11.33439 14.54824,-27.30369 14.14216,-42.047626 0.22904,-9.9646106 -0.0718,-21.1217756 0.75761,-29.73634 1.51245,-7.444536 4.15348,-12.148385 6.81853,-16.793802 -8.38907,0.808479 -17.13842,3.148271 -26.20085,6.818532 -8.62219,3.566514 -16.85982,8.121865 -24.30679,14.7103384 l -1.26269,-7.4498654 c -3.75631,8.1408004 -8.60658,15.5705204 -15.7205,21.5288694 -8.21692,5.7169136 -15.16307,13.7510926 -20.51872,24.6856036 l -1.38896,3.47241 c 1.75444,4.48255 3.69288,8.96511 4.48255,13.44767 0.71474,9.6833 -0.51991,18.53114 -5.68211,25.69572 -6.715534,9.27708 -16.428934,16.50834 -33.082494,19.0035 -24.823977,1.87801 -41.082915,-9.79234 -56.821076,-22.28647 -6.7681586,-6.09381 -12.45624557,-13.73057 -20.3293226,-18.2459 -4.3586724,-2.45102 -8.5161644,-5.05856 -14.3315384,-6.37659 l -3.219859,-0.56818 C -19.2971,37.658968 -10.173385,30.462148 0.28836743,24.157362 9.5605044,19.149186 18.613085,15.385268 32.613249,13.235094 c 0.60864,11.591131 3.132933,20.372634 6.250318,28.284244 z"
         style="fill:#e10514;fill-opacity:1;stroke:#e10514;stroke-width:0.75590551;stroke-linecap:round;stroke-miterlimit:3.87096763;stroke-dasharray:none;stroke-dashoffset:0;stroke-opacity:1" />
      <path
         sodipodi:nodetypes="ccccccccccccc"
         inkscape:connector-curvature="0"
         id="path1605"
         d="m 102.5448,84.647188 c -0.47203,-0.29896 -0.0612,-0.42308 5e-5,-0.7031 l 3.52679,-3.2143 c 7.91113,-2.94002 12.51698,-6.49977 16.42856,-10.18972 10.2422,-9.01406 14.35653,-18.62759 16.91965,-28.39287 3.10269,-13.56401 4.51644,-27.315631 3.08035,-41.38393961 5.41442,-4.58388699 10.97222,-8.81725999 16.91965,-12.09823039 7.48117,-3.882747 14.75067,-6.63651 21.87501,-8.616038 -2.14594,6.353159 -3.15073,13.5880824 -2.67859,21.9642714 0.25738,9.0333356 0.2657,18.0813356 -1.47322,27.2321366 -1.59625,9.73924 -4.93229,19.02286 -11.51785,27.45536 -9.51181,12.74086 -21.84568,20.50466 -35.98214,25.0893 -8.00033,2.21794 -16.51111,3.81014 -27.09826,2.85713 z"
         style="opacity:1;fill:#ffffff;fill-opacity:1;stroke:#e10514;stroke-width:0.37795275;stroke-linecap:round;stroke-miterlimit:3.87096763;stroke-dasharray:none;stroke-dashoffset:0;stroke-opacity:1" />
      <path
         sodipodi:nodetypes="cccccccc"
         inkscape:connector-curvature="0"
         id="path1607"
         d="m 84.312776,83.069578 c -18.30457,-4.14418 -26.954854,-14.1227 -34.953548,-23.70928 -8.313082,-27.85599 -5.566805,-36.31903 -3.298322,-50.6708786 3.506313,-13.81818 9.491543,-24.9320704 16.92005,-34.4714844 2.24267,15.334904 6.71298,31.1610714 18.05648,45.583144 4.42292,6.324208 10.3489,11.068009 14.2684,16.036199 5.225714,7.30836 7.999304,15.80776 4.924504,27.14781 -1.970464,7.1825 -5.908644,14.2023 -15.917564,20.08449 z"
         style="fill:#e10514;fill-opacity:1;stroke:#e10514;stroke-width:0.37795275;stroke-linecap:round;stroke-miterlimit:3.87096763;stroke-dasharray:none;stroke-dashoffset:0;stroke-opacity:1" />
      <path
         sodipodi:nodetypes="csscccccc"
         inkscape:connector-curvature="0"
         id="path1609"
         d="m 72.634076,-9.7278036 c 10.6092,8.175081 24.33461,6.410004 34.395354,0.0514 5.85913,-3.7031064 10.72435,-8.5863314 13.44971,-13.0394084 1.88038,-3.072454 2.90519,-5.951622 3.27102,-7.770898 2.78777,11.138986 3.47999,19.679471 3.30357,27.1428294 -3.75,4.33583599 -7.63393,7.677014 -11.38393,10.491061 C 108.75875,12.999099 103.17772,20.881114 98.526936,30.182908 85.567776,18.066765 81.046156,9.5506204 76.830506,1.1650584 c -1.62338,-3.181834 -3.16114,-6.534841 -4.19643,-10.892864 z"
         style="fill:#e10514;fill-opacity:1;stroke:#e10514;stroke-width:0.37795275;stroke-linecap:round;stroke-miterlimit:3.87096763;stroke-dasharray:none;stroke-dashoffset:0;stroke-opacity:1" />
      <path
         sodipodi:nodetypes="cccccccc"
         inkscape:connector-curvature="0"
         id="path1611"
         d="m 86.056636,-37.461939 c 1.24144,1.483653 2.00886,2.967345 2.49381,4.450998 0.42472,2.190388 1.51871,3.577625 2.77792,4.766627 2.75262,1.907452 5.23384,2.322217 7.48144,1.452095 2.989364,-1.698974 3.071164,-3.231799 3.188294,-4.766627 -0.0457,-3.30497 -1.84937,-4.912479 -4.324714,-5.871534 -2.66265,-0.683301 -5.06851,-1.709027 -8.93354,-0.789166 z"
         style="fill:#e10514;fill-opacity:1;stroke:#e10514;stroke-width:0.37795275;stroke-linecap:round;stroke-miterlimit:3.87096763;stroke-dasharray:none;stroke-dashoffset:0;stroke-opacity:1" />
      <path
         sodipodi:nodetypes="cccccccccscccccccc"
         inkscape:connector-curvature="0"
         id="path1613"
         d="m 81.473366,-34.058172 c -4.31974,-3.858029 -9.36134,-3.612624 -12.36607,2.187515 -0.68247,4.257902 0.34602,8.559685 2.94643,12.901795 3.8994,5.45314 7.94337,7.074898 12.00892,8.125002 7.54335,1.1694994 14.44305,-0.681147 20.892864,-4.642885 5.74865,-3.364687 9.77114,-8.183018 12.32143,-14.241071 2.2238,-5.503975 2.78994,-10.401487 1.5625,-14.642835 -2.36904,-5.645858 -6.38675,-8.406539 -11.78571,-8.750022 -5.32259,0.048 -11.118044,0.730167 -17.613194,3.3744 -1.47668,0.41314 -12.14049,6.905877 -11.62789,7.295244 0.31488,0.239244 3.13135,1.020246 3.08036,0.714293 4.29126,-2.405934 8.0751,-2.528429 11.875,-2.723225 6.69037,0.510916 9.931514,2.387338 12.449944,5.067628 2.86981,2.843112 3.40013,7.008907 2.14828,11.45023 -1.04729,2.979024 -2.90198,5.531906 -6.96429,6.919635 -4.060284,1.701392 -8.224684,0.687949 -12.455364,-2.053569 -1.81728,-1.889953 -3.95127,-3.563905 -4.73214,-6.160705 -0.14763,-1.636007 -0.70075,-3.244952 -1.74107,-4.82143 z"
         style="fill:#e10514;fill-opacity:1;stroke:#e10514;stroke-width:0.37795275;stroke-linecap:round;stroke-miterlimit:3.87096763;stroke-dasharray:none;stroke-dashoffset:0;stroke-opacity:1" />
    </g>
  </g>
</svg>
