<?xml version="1.0" encoding="UTF-8" standalone="no"?>
<!-- Created with Inkscape (http://www.inkscape.org/) -->

<svg
   xmlns:dc="http://purl.org/dc/elements/1.1/"
   xmlns:cc="http://creativecommons.org/ns#"
   xmlns:rdf="http://www.w3.org/1999/02/22-rdf-syntax-ns#"
   xmlns:svg="http://www.w3.org/2000/svg"
   xmlns="http://www.w3.org/2000/svg"
   xmlns:sodipodi="http://sodipodi.sourceforge.net/DTD/sodipodi-0.dtd"
   xmlns:inkscape="http://www.inkscape.org/namespaces/inkscape"
   width="100px"
   height="100px"
   viewBox="0 0 100 100"
   version="1.1"
   id="SVGRoot"
   inkscape:version="0.92.4 (5da689c313, 2019-01-14)"
   sodipodi:docname="tevynes-krikscionis-demokratai-ts-lkd-logo-svg.svg">
  <defs
     id="defs850" />
  <sodipodi:namedview
     id="base"
     pagecolor="#ffffff"
     bordercolor="#666666"
     borderopacity="1.0"
     inkscape:pageopacity="0.0"
     inkscape:pageshadow="2"
     inkscape:zoom="4"
     inkscape:cx="-32.142776"
     inkscape:cy="46.287934"
     inkscape:document-units="px"
     inkscape:current-layer="layer1"
     showgrid="false"
     inkscape:window-width="1920"
     inkscape:window-height="1001"
     inkscape:window-x="-9"
     inkscape:window-y="-9"
     inkscape:window-maximized="1"
     inkscape:grid-bbox="true"
     showguides="true"
     inkscape:guide-bbox="true">
    <sodipodi:guide
       position="49.640422,50.264163"
       orientation="1,0"
       id="guide1522"
       inkscape:locked="false" />
    <sodipodi:guide
       position="-30.25,50"
       orientation="0,1"
       id="guide1524"
       inkscape:locked="false" />
  </sodipodi:namedview>
  <metadata
     id="metadata853">
    <rdf:RDF>
      <cc:Work
         rdf:about="">
        <dc:format>image/svg+xml</dc:format>
        <dc:type
           rdf:resource="http://purl.org/dc/dcmitype/StillImage" />
        <dc:title></dc:title>
      </cc:Work>
    </rdf:RDF>
  </metadata>
  <g
     inkscape:label="Layer 1"
     inkscape:groupmode="layer"
     id="layer1">
    <g
       id="g1590"
       transform="matrix(0.28019573,0,0,0.28019573,68.360548,25.17343)">
      <path
         sodipodi:nodetypes="ccccccccccc"
         inkscape:connector-curvature="0"
         id="path1560"
         d="m -162.95352,-40.754081 c 22.23251,-1.281033 38.07307,3.971943 48.74999,7.321399 20.459033,8.98817 35.607953,20.835628 46.785713,34.8214298 36.15631,-28.9063558 63.5736296,-28.9636918 80.53572,-24.8214048 41.75323,11.440895 53.86456,51.409021 42.14285,96.607144 10.13651,-12.47063 19.22468,-30.242457 17.85715,-51.607144 -0.98819,-25.7856752 -19.78908,-49.295736 -35.17858,-57.321449 -18.70903,-8.939793 -40.4421504,-15.482041 -78.39284,-3.035717 -13.89018,5.090306 -21.12131,11.512441 -26.75258,18.254552 -15.88533,-20.379705 -46.640233,-24.72601 -56.947343,-25.316977 -12.03195,0.0076 -23.15861,-1.678942 -38.80008,5.098167 z"
         style="fill:#00649f;fill-opacity:1;stroke:#00649f;stroke-width:0.75590551;stroke-linecap:round;stroke-miterlimit:3.87096763;stroke-dasharray:none;stroke-dashoffset:0;stroke-opacity:1" />
      <path
         sodipodi:nodetypes="ccccccccc"
         inkscape:connector-curvature="0"
         id="path1562"
         d="m -7.8642474,163.53162 c -19.5582196,19.13023 -39.2549796,38.04646 -56.6964196,60.44644 -29.88907,-20.43617 -58.198803,-40.4168 -85.714283,-66.16071 -28.66002,-26.44532 -53.7094,-53.33344 -65.35715,-89.821463 -5.65207,-22.86334 -6.19135,-45.150572 5,-66.1160652 1.9307,34.8713202 17.66641,68.0288152 39.82143,97.9017852 26.28102,34.604673 58.11776,64.536193 89.336163,86.006743 5.96734,4.2754 12.35078,8.79575 16.92006,12.24813 19.0582,-14.00421 37.96862,-25.71799 56.6901996,-34.50486 z"
         style="fill:#00649f;fill-opacity:1;stroke:#00649f;stroke-width:0.75590551;stroke-linecap:round;stroke-miterlimit:3.87096763;stroke-dasharray:none;stroke-dashoffset:0;stroke-opacity:1" />
      <path
         sodipodi:nodetypes="ccccccccccccccccccccccccccc"
         inkscape:connector-curvature="0"
         id="path1564"
         d="m -69.649957,176.74591 14.73215,-12.41073 25.44642,-20.35714 -38.125,5.53573 -30.80357,4.73212 c 22.65268,-5.9712 45.48291,-11.09904 67.5,-20.08925 13.51954,-5.65312 31.65116955,-13.61828 36.6964296,-28.48214 0.69116,-5.45341 -0.65246,-10.210703 -6.33929005,-13.482183 -6.27004995,-2.37963 -13.80237955,-4.07766 -28.39285955,-1.96426 l -13.48214,2.23215 c 10.0941,-5.39788 20.10375,-10.97669 31.33929,-13.92858 13.9478896,-4.68971 23.82787,-4.43981 33.125,-3.48215 10.47392,1.64893 16.5571,7.36335 22.58928,13.12501 3.42849,4.2618 4.38796,6.05461 5.53572,8.03569 1.87343,-3.25474 2.83579,-6.42663 8.21428,-9.99999 5.2703,-2.7493 10.43349,-2.39251 15.53572,-0.26796 3.56264,1.22316 8.47867,4.53683 10.98215,7.14285 -6.07404,2.07651 -11.86811,3.2852 -19.55358,10.357153 -5.14515,6.16755 -7.01584,15.09109 -8.125,22.49998 -0.22956,9.78709 -1.93588,18.26389 -7.41071,30.35717 -4.0322,9.09853 -12.09915,15.0926 -21.875,21.42856 -10.37615,5.54358 -21.1838304,9.57683 -32.2321504,12.76785 9.33397,-8.59911 18.7607604,-17.14519 25.8035704,-27.05356 2.81502,-4.3895 8.21264,-11.45423 7.14286,-18.66073 -2.35928,-4.83685 -8.85302,-5.85729 -17.76786,-4.64285 -15.1961904,2.70599 -33.08269,10.42579 -51.96428,20.00001 z"
         style="fill:#00a551;fill-opacity:1;stroke:#00a551;stroke-width:0.75590551;stroke-linecap:round;stroke-miterlimit:3.87096763;stroke-dasharray:none;stroke-dashoffset:0;stroke-opacity:1" />
    </g>
  </g>
</svg>
