<?xml version="1.0" encoding="UTF-8" standalone="no"?>
<svg
   xmlns:dc="http://purl.org/dc/elements/1.1/"
   xmlns:cc="http://creativecommons.org/ns#"
   xmlns:rdf="http://www.w3.org/1999/02/22-rdf-syntax-ns#"
   xmlns:svg="http://www.w3.org/2000/svg"
   xmlns="http://www.w3.org/2000/svg"
   xmlns:sodipodi="http://sodipodi.sourceforge.net/DTD/sodipodi-0.dtd"
   xmlns:inkscape="http://www.inkscape.org/namespaces/inkscape"
   id="SVGRoot"
   version="1.1"
   viewBox="0 0 400 400"
   height="400px"
   width="400px"
   sodipodi:docname="custom-border.svg"
   inkscape:version="0.92.4 (5da689c313, 2019-01-14)"
   inkscape:export-filename="C:\Users\Lenovo\Desktop\my repository\kursas1\projektas\photo\custom-border.png"
   inkscape:export-xdpi="96"
   inkscape:export-ydpi="96">
  <sodipodi:namedview
     pagecolor="#ffffff"
     bordercolor="#666666"
     borderopacity="1"
     objecttolerance="10"
     gridtolerance="10"
     guidetolerance="10"
     inkscape:pageopacity="0"
     inkscape:pageshadow="2"
     inkscape:window-width="1920"
     inkscape:window-height="1001"
     id="namedview1053"
     showgrid="false"
     inkscape:zoom="1.668772"
     inkscape:cx="285.40748"
     inkscape:cy="198.78941"
     inkscape:window-x="-9"
     inkscape:window-y="-9"
     inkscape:window-maximized="1"
     inkscape:current-layer="SVGRoot" />
  <defs
     id="defs1061" />
  <metadata
     id="metadata1064">
    <rdf:RDF>
      <cc:Work
         rdf:about="">
        <dc:format>image/svg+xml</dc:format>
        <dc:type
           rdf:resource="http://purl.org/dc/dcmitype/StillImage" />
        <dc:title></dc:title>
      </cc:Work>
    </rdf:RDF>
  </metadata>
  <path
     style="fill:none;stroke:#270000;stroke-width:2.1453774px;stroke-linecap:round;stroke-linejoin:miter;stroke-opacity:1"
     d="m 165.40646,71.935492 1.62544,-8.668636 23.83871,-54.1789796 c 4.10144,-4.9493663 3.61021,-3.9222657 6.8807,-5.6210827 3.75246,2.6152372 4.4648,4.5549573 6.12227,6.7046053 l 29.61146,59.223128 c 0.7768,2.14008 1.23251,0.9911 2.59124,-0.265961 l 15.24451,-14.028947 c 1.39126,-1.436179 2.78186,-2.8691 2.93916,1.124178 l 2.61418,19.341888 c -0.0242,4.067786 2.21152,1.989816 3.83307,1.584555 l 58.02574,-25.802673 c 2.60682,-1.373727 4.95244,-1.180514 7.31411,-1.083608 2.15437,3.502394 0.995,4.933618 1.35453,7.314193 l -15.73902,64.283328 c -0.54246,2.61752 -0.28137,4.36377 2.19424,3.71128 l 22.47078,-2.42453 c 2.91657,-0.63084 3.79471,0.34785 1.9099,3.50815 l -13.54479,16.79541 c -1.27012,2.402 2.72545,2.54719 4.84896,3.49476 l 67.41218,18.98975 c 2.14357,1.17449 3.41134,2.36411 1.11062,6.50148 l -60.91068,40.09238 c -0.13621,0.96784 -3.4706,1.33589 0,2.97989 l 20.49322,14.00526 c 1.12295,0.83217 1.68341,1.70765 -0.44678,2.79021 l -19.759,6.98793 c -2.7401,0.80438 -2.50957,0.79221 -0.92314,2.96349 l 39.64473,54.25065 c 1.0331,2.21671 1.03341,4.52872 1.35453,8.39767 -3.73675,1.85531 -5.49976,1.78687 -7.85594,2.43809 l -69.89094,-7.31415"
     id="path3940-9"
     inkscape:connector-curvature="0"
     sodipodi:nodetypes="cccccccccccccccccccccccccccccccc" />
  <path
     style="fill:none;stroke:#270000;stroke-width:2.14875627;stroke-linecap:round;stroke-linejoin:miter;stroke-miterlimit:4;stroke-dasharray:none;stroke-opacity:1"
     d="m 299.77029,300.02898 v 0 l 7.04331,26.27669 c 0.76057,1.86278 -0.12168,1.71787 -1.62537,0.8128 l -22.19674,-10.26304 c -1.75282,-1.14857 -3.20554,-1.73035 -2.71203,1.3641 l -5.16061,74.99727 c -0.14031,2.57241 -1.3477,3.80988 -2.46514,5.16049 -1.77666,-0.25945 -3.95551,-0.3754 -7.82885,-3.80604 l -47.42015,-54.51768 c -1.283,-1.03173 -2.63879,-3.51943 -3.68408,0.2036 l -5.24181,27.49582 c -0.72249,3.40961 -1.4448,0.78974 -2.16719,0 l -12.73207,-25.46417 c -0.73868,-0.8706 -0.88301,-2.92951 -3.5216,0 l -46.59395,49.84468 c -1.98391,2.44341 -4.30109,4.22016 -7.0433,5.14703 -1.78735,-0.7541 -3.30389,-2.41113 -4.33425,-5.68885 l -5.82428,-74.94302 c -0.58623,-1.43869 0.88661,-5.3427 -4.19889,-1.72023 l -25.193166,17.87919 c -2.891324,2.48521 -1.166071,-0.41515 -1.354521,-1.08369 l 8.668657,-27.36023 c 1.60054,-2.72367 -0.31867,-2.39707 -2.43807,-1.89635 l -64.472985,8.39782 c -2.695111,0.41679 -6.047907,0.34056 -9.752201,0 -0.564363,-3.09898 0.142669,-6.03889 1.598264,-8.88546 l 39.848656,-58.56748 c 0.04873,-1.28746 1.321034,-2.57486 -1.609062,-3.86232 l -23.31328,-2.09741 c -2.114699,-0.79707 -7.482132,0.34137 -1.801452,-3.67065 5.78647,-3.58502 15.294355,-10.48237 20.335242,-14.76495 2.170742,-1.8442 1.276611,-3.3395 -0.625167,-4.10097 L 7.4751306,180.29362 c -1.9552093,-1.96227 -3.9846093,-3.47969 -5.7023057,-6.86708 1.5528669,-1.92838 3.6639833,-2.74027 5.7023057,-3.69773 L 74.927908,149.41163 c 2.074905,-0.073 2.601787,-1.13537 1.89628,-2.97981 L 62.344155,128.91566 c -4.220647,-3.61519 -2.70573,-2.91323 1.306043,-2.72852 l 23.467977,0.46947 c 2.94104,0.6057 2.224243,-0.87944 1.733773,-2.23495 L 68.697349,59.745562 c -0.336513,-2.438072 -1.087695,-4.876144 0.270802,-7.314212 2.31409,-0.22621 4.542714,-0.111134 6.501509,1.083628 l 63.66036,25.734964 c 1.82642,0.853667 3.20181,0.805181 3.2507,-1.896085 V 51.88979 l 23.02604,20.046194"
     id="path3942-1"
     inkscape:connector-curvature="0"
     sodipodi:nodetypes="cccccccccccccccccccccccccccccccsccccccccccccccccc" />
  <ellipse
     style="fill:none;fill-rule:evenodd;stroke:#000000;stroke-width:2.57638311;stroke-opacity:1"
     id="path3948-96"
     cx="203.33177"
     cy="200.20425"
     rx="77.746811"
     ry="76.527802" />
  <ellipse
     style="fill:none;fill-rule:evenodd;stroke:#000000;stroke-width:2.73496699;stroke-opacity:1"
     id="path4755-4"
     cx="202.65469"
     cy="200.20412"
     rx="67.035645"
     ry="67.306549" />
  <path
     style="fill:none;stroke:#000000;stroke-width:1.62170279;stroke-linecap:butt;stroke-linejoin:miter;stroke-miterlimit:4;stroke-dasharray:none;stroke-opacity:1"
     d="m 163.22535,98.419199 c 0.98892,4.889021 6.24818,3.640251 10.01182,1.200731 1.23022,-1.236736 3.51586,-2.727476 2.85258,-6.901007 -0.82643,0.08925 -1.72621,0.65597 -2.43807,0 -2.11583,-1.075435 -0.5668,-2.054048 0,-2.43807 0.99329,-0.856672 1.9866,-0.421652 2.97989,-0.541644 0.007,-1.841292 0.007,-3.672522 0.51895,-6.260598 1.2976,-2.856786 2.38356,-2.86644 3.42582,0.915946 0.2303,1.86219 0.14439,3.53434 0.0648,5.209879 1.18587,0.0017 1.58675,0.101263 2.31829,0.160474 1.77577,0.745176 1.15926,1.607767 0.61381,2.271933 -0.8204,0.30812 -1.72937,0.461363 -2.80472,0.323523 -0.25946,4.295885 1.38939,5.056642 3.40339,5.539095 4.33446,0.642198 7.27706,0.915211 9.95732,-0.668956 2.38033,-1.385824 4.76822,-3.135324 5.06629,-8.628283 -0.29271,-1.380378 -4.9474,-5.707583 -6.99537,-1.330434 -0.79139,1.4288 0.7111,4.300925 -3.78946,-0.278941 -1.19517,-1.048425 -5.71528,-6.838885 0.19138,-10.491348 2.12947,-0.168626 3.91245,-0.351112 6.6369,2.370278 1.6084,0.869157 2.76834,1.004314 2.40417,-1.35444 -0.26269,-2.973731 -1.37478,-5.830753 1.34431,-10.33804 1.73864,-2.808792 3.84061,-1.337901 5.40103,-0.206813 3.52046,2.672152 2.32232,6.287736 2.39328,9.844473 0.14676,1.960959 0.90474,2.628773 2.709,1.083523 0.1727,-0.291902 0.34703,-0.533536 0.523,-0.737068 0.83791,-0.971877 1.70797,-1.09043 2.52895,-1.7083 1.1759,0.0042 5.10268,-0.115206 5.82491,3.927287 -0.0648,5.047793 -4.42409,9.096207 -4.96145,8.703197 -0.9182,-1.82368 -2.14533,-2.488919 -3.30154,-3.420098 -1.02377,-0.383529 -6.8357,2.444486 -2.74287,8.668655 2.66286,3.802734 5.22052,6.626773 10.90361,5.011536 3.42804,-1.895027 4.77342,-2.891322 5.28237,-7.585109 L 222.1933,90.7282 c -4.70327,-0.604888 -3.45122,-2.717635 -1.86235,-3.284595 1.22585,-0.391636 1.78117,-0.241632 3.01369,-0.406227 -0.33813,-1.389067 -0.46221,-3.150316 -0.44029,-5.079417 -0.18087,-3.134912 3.11373,-6.643227 4.06341,0.270832 0.1079,1.749964 -0.10454,1.959654 0,5.316418 2.0195,-0.119279 3.64947,0.705442 3.65709,0.677875 1.39557,0.548937 1.51849,1.270364 0.84628,2.133277 -1.05781,0.607314 -2.79759,1.136879 -4.13112,0.812711 -0.10388,3.496626 0.29191,6.730397 3.0137,7.923715 3.08521,1.685111 5.33224,2.677341 8.26225,-1.015924 1.21862,-4.066732 2.61565,-7.308269 0.77925,-10.835633 -0.63492,-1.017465 -1.32983,-2.588483 -5.95978,0.541644 -1.42881,0.592725 -4.34373,-6.662599 -1.38825,-9.345952 4.5517,-2.746448 5.97013,1.046065 8.66865,2.167154 -4.10883,-5.034172 -2.64677,-9.139824 1.89626,-12.732066 l 3.7925,55.533508 c -28.83366,-2.83748 -58.79857,-2.11841 -87.37711,3.46413 l -2.83085,-58.455738 c 2.14169,0.801943 4.05044,2.569346 5.74975,5.204536 1.39262,3.4544 1.47225,6.005984 0.84653,8.072671 2.95231,-2.428483 6.54785,-3.450562 7.23286,-3.355691 1.33459,-0.04869 1.87363,4.106872 0.8398,8.42142 -0.33325,1.766998 -2.4597,5.602246 -3.45009,5.630543 -1.03951,0.0324 -1.81588,-2.63315 -2.96032,-2.69234 -1.98457,-0.102122 -2.50587,1.825628 -1.22907,8.724763 z"
     id="path4757-16"
     inkscape:connector-curvature="0"
     sodipodi:nodetypes="ccccccccccccccccccccccccsccccccccccccccccccccccccccccccsscc" />
  <ellipse
     style="fill:none;fill-rule:evenodd;stroke:#000000;stroke-width:0.88147718;stroke-miterlimit:4;stroke-dasharray:none;stroke-opacity:1"
     id="path4761-92"
     ry="6.0623565"
     rx="6.5364227"
     cy="111.22204"
     cx="203.8262" />
  <ellipse
     style="fill:none;fill-rule:evenodd;stroke:#000000;stroke-width:0.8048436;stroke-miterlimit:4;stroke-dasharray:none;stroke-opacity:1"
     id="path4761-9-5"
     ry="4.9223714"
     rx="4.8749661"
     cy="112.97624"
     cx="180.35995" />
  <ellipse
     style="fill:none;fill-rule:evenodd;stroke:#000000;stroke-width:0.70188212;stroke-miterlimit:4;stroke-dasharray:none;stroke-opacity:1"
     id="path4761-94-1"
     ry="5.1566157"
     rx="4.8721757"
     cy="111.41172"
     cx="226.86571" />
  <path
     style="fill:none;stroke:#000000;stroke-width:0.52705342;stroke-linecap:butt;stroke-linejoin:miter;stroke-miterlimit:4;stroke-dasharray:none;stroke-opacity:1"
     d="m 158.97559,119.37738 16.05682,-3.4527 0.63733,2.0448 3.08398,-0.26839"
     id="path4799-8"
     inkscape:connector-curvature="0"
     sodipodi:nodetypes="cccc" />
  <path
     style="fill:none;stroke:#000000;stroke-width:0.52705342;stroke-linecap:butt;stroke-linejoin:miter;stroke-miterlimit:4;stroke-dasharray:none;stroke-opacity:1"
     d="m 182.27305,117.4331 3.78798,-0.46946 -0.0324,-2.4471 11.33027,-0.46947 v 2.27946 l 2.51412,-0.10056"
     id="path4801-05"
     inkscape:connector-curvature="0"
     sodipodi:nodetypes="cccccc" />
  <path
     style="fill:none;stroke:#000000;stroke-width:0.52705342;stroke-linecap:butt;stroke-linejoin:miter;stroke-miterlimit:4;stroke-dasharray:none;stroke-opacity:1"
     d="m 158.94211,113.07535 15.15172,-3.01694 -0.20101,-2.17892 11.49788,-1.40787 0.0648,2.11186 11.56495,-0.57003 -0.20103,-2.9164 14.38069,-0.57003 -0.13387,3.31865 10.52582,-0.43623 0.26839,-2.2459 9.85527,1.07268 -0.10055,2.27948 13.5091,2.17889"
     id="path4803-0"
     inkscape:connector-curvature="0" />
  <path
     style="fill:none;stroke:#000000;stroke-width:0.52705342;stroke-linecap:butt;stroke-linejoin:miter;stroke-miterlimit:4;stroke-dasharray:none;stroke-opacity:1"
     d="m 207.98412,115.92459 3.31854,-0.0981 -0.0648,-2.7488 10.05652,0.30164 -0.0324,1.9107 2.78228,0.16949"
     id="path4805-2"
     inkscape:connector-curvature="0"
     sodipodi:nodetypes="cccccc" />
  <path
     style="fill:none;stroke:#000000;stroke-width:0.52705342;stroke-linecap:butt;stroke-linejoin:miter;stroke-miterlimit:4;stroke-dasharray:none;stroke-opacity:1"
     d="m 229.33731,115.85762 3.0839,0.46947 0.13386,-1.91075 12.73814,2.61468"
     id="path4809-6"
     inkscape:connector-curvature="0"
     sodipodi:nodetypes="cccc" />
  <path
     style="fill:none;stroke:#000000;stroke-width:2.1453774px;stroke-linecap:butt;stroke-linejoin:miter;stroke-opacity:1"
     d="m 250.04758,262.11712 30.90908,53.56955"
     id="path4811-0"
     inkscape:connector-curvature="0" />
  <path
     style="fill:none;stroke:#000000;stroke-width:2.1453774px;stroke-linecap:butt;stroke-linejoin:miter;stroke-opacity:1"
     d="m 254.12454,258.4195 45.64591,41.6097"
     id="path4813-6"
     inkscape:connector-curvature="0" />
  <path
     style="fill:none;stroke:#000000;stroke-width:2.1453774px;stroke-linecap:butt;stroke-linejoin:miter;stroke-opacity:1"
     d="m 279.34487,218.31357 56.03453,21.33292"
     id="path4815-6"
     inkscape:connector-curvature="0" />
  <path
     style="fill:none;stroke:#000000;stroke-width:2.1453774px;stroke-linecap:butt;stroke-linejoin:miter;stroke-opacity:1"
     d="m 334.52615,214.52096 -54.23316,-2.65473"
     id="path4817-8"
     inkscape:connector-curvature="0" />
  <path
     style="fill:none;stroke:#000000;stroke-width:2.1453774px;stroke-linecap:butt;stroke-linejoin:miter;stroke-opacity:1"
     d="m 272.5183,164.27 52.05245,-18.86777"
     id="path4819-7"
     inkscape:connector-curvature="0" />
  <path
     style="fill:none;stroke:#000000;stroke-width:2.1453774px;stroke-linecap:butt;stroke-linejoin:miter;stroke-opacity:1"
     d="m 311.01241,125.1122 -42.09703,32.61568"
     id="path4821-6"
     inkscape:connector-curvature="0" />
  <path
     style="fill:none;stroke:#000000;stroke-width:2.1453774px;stroke-linecap:butt;stroke-linejoin:miter;stroke-opacity:1"
     d="M 256.87405,78.084831 245.40173,100.17632"
     id="path4823-33"
     inkscape:connector-curvature="0" />
  <path
     style="fill:none;stroke:#000000;stroke-width:2.1453774px;stroke-linecap:butt;stroke-linejoin:miter;stroke-opacity:1"
     d="m 233.48504,69.394527 -1.43861,9.042531"
     id="path4825-60"
     inkscape:connector-curvature="0" />
  <path
     style="fill:none;stroke:#000000;stroke-width:2.1453774px;stroke-linecap:butt;stroke-linejoin:miter;stroke-opacity:1"
     d="m 165.40653,71.93607 2.3432,6.622781"
     id="path4827-8"
     inkscape:connector-curvature="0" />
  <path
     style="fill:none;stroke:#000000;stroke-width:2.14875627;stroke-linecap:round;stroke-linejoin:miter;stroke-miterlimit:4;stroke-dasharray:none;stroke-opacity:1"
     d="m 141.39164,79.981087 16.49751,29.012863"
     id="path4829-2"
     inkscape:connector-curvature="0"
     sodipodi:nodetypes="cc" />
  <path
     style="fill:none;stroke:#000000;stroke-width:2.1453774px;stroke-linecap:butt;stroke-linejoin:miter;stroke-opacity:1"
     d="m 89.813294,126.81879 45.794776,33.75347"
     id="path4831-21"
     inkscape:connector-curvature="0" />
  <path
     style="fill:none;stroke:#000000;stroke-width:2.1453774px;stroke-linecap:butt;stroke-linejoin:miter;stroke-opacity:1"
     d="m 76.918639,148.72061 54.707251,18.48864"
     id="path4833-1"
     inkscape:connector-curvature="0" />
  <path
     style="fill:none;stroke:#000000;stroke-width:2.1453774px;stroke-linecap:butt;stroke-linejoin:miter;stroke-opacity:1"
     d="m 63.455184,218.12382 62.861166,-4.64577"
     id="path4835-9"
     inkscape:connector-curvature="0"
     sodipodi:nodetypes="cc" />
  <path
     style="fill:none;stroke:#000000;stroke-width:2.1453774px;stroke-linecap:butt;stroke-linejoin:miter;stroke-opacity:1"
     d="m 68.967924,243.41224 c 2.072363,-1.96428 57.917326,-24.24541 57.917326,-24.24541"
     id="path4837-1"
     inkscape:connector-curvature="0" />
  <path
     style="fill:none;stroke:#000000;stroke-width:2.1453774px;stroke-linecap:butt;stroke-linejoin:miter;stroke-opacity:1"
     d="m 152.39002,258.13502 -48.20576,46.22861"
     id="path4839-2"
     inkscape:connector-curvature="0" />
  <path
     style="fill:none;stroke:#000000;stroke-width:2.1453774px;stroke-linecap:butt;stroke-linejoin:miter;stroke-opacity:1"
     d="m 157.22547,262.21199 -31.19355,52.14732"
     id="path4841-6"
     inkscape:connector-curvature="0" />
  <path
     style="fill:none;stroke:#000000;stroke-width:2.1453774px;stroke-linecap:butt;stroke-linejoin:miter;stroke-opacity:1"
     d="m 200.08104,276.24428 -7.67988,64.28341"
     id="path4843-7"
     inkscape:connector-curvature="0" />
  <path
     style="fill:none;stroke:#000000;stroke-width:2.1453774px;stroke-linecap:butt;stroke-linejoin:miter;stroke-opacity:1"
     d="m 205.10615,276.81325 9.19683,61.05969"
     id="path4845-9"
     inkscape:connector-curvature="0" />
</svg>
