<?xml version="1.0" encoding="UTF-8" standalone="no"?>
<!-- Created with Inkscape (http://www.inkscape.org/) -->

<svg
   xmlns:dc="http://purl.org/dc/elements/1.1/"
   xmlns:cc="http://creativecommons.org/ns#"
   xmlns:rdf="http://www.w3.org/1999/02/22-rdf-syntax-ns#"
   xmlns:svg="http://www.w3.org/2000/svg"
   xmlns="http://www.w3.org/2000/svg"
   xmlns:sodipodi="http://sodipodi.sourceforge.net/DTD/sodipodi-0.dtd"
   xmlns:inkscape="http://www.inkscape.org/namespaces/inkscape"
   width="100px"
   height="100px"
   viewBox="0 0 100 100"
   version="1.1"
   id="SVGRoot"
   inkscape:version="0.92.4 (5da689c313, 2019-01-14)"
   sodipodi:docname="laisves-partija-logo-svg.svg">
  <defs
     id="defs850" />
  <sodipodi:namedview
     id="base"
     pagecolor="#ffffff"
     bordercolor="#666666"
     borderopacity="1.0"
     inkscape:pageopacity="0.0"
     inkscape:pageshadow="2"
     inkscape:zoom="4"
     inkscape:cx="37.861699"
     inkscape:cy="32.322893"
     inkscape:document-units="px"
     inkscape:current-layer="layer1"
     showgrid="false"
     inkscape:window-width="1920"
     inkscape:window-height="1001"
     inkscape:window-x="-9"
     inkscape:window-y="-9"
     inkscape:window-maximized="1"
     inkscape:grid-bbox="true"
     showguides="true"
     inkscape:guide-bbox="true">
    <sodipodi:guide
       position="49.640422,50.264163"
       orientation="1,0"
       id="guide1522"
       inkscape:locked="false" />
    <sodipodi:guide
       position="-30.25,50"
       orientation="0,1"
       id="guide1524"
       inkscape:locked="false" />
  </sodipodi:namedview>
  <metadata
     id="metadata853">
    <rdf:RDF>
      <cc:Work
         rdf:about="">
        <dc:format>image/svg+xml</dc:format>
        <dc:type
           rdf:resource="http://purl.org/dc/dcmitype/StillImage" />
        <dc:title></dc:title>
      </cc:Work>
    </rdf:RDF>
  </metadata>
  <g
     inkscape:label="Layer 1"
     inkscape:groupmode="layer"
     id="layer1">
    <rect
       style="fill:#eb0176;fill-opacity:1;stroke:#fee02d;stroke-width:0.21001565;stroke-linecap:round;stroke-miterlimit:3.87096763;stroke-dasharray:none;stroke-dashoffset:0;stroke-opacity:1"
       id="rect1475"
       width="103.22387"
       height="101.84834"
       x="-0.34257379"
       y="-0.033931866" />
    <g
       id="g1536"
       transform="translate(0,0.264163)">
      <path
         sodipodi:nodetypes="ccccccsccccccc"
         inkscape:connector-curvature="0"
         id="path1438"
         d="m 3.3400119,64.713322 c 2.552964,-3.873549 8.9347501,-27.238337 8.9093271,-27.289182 0.06594,-0.449422 0.257447,-0.820362 0.849085,-0.941218 h 2.852286 c 0.372751,0.242873 0.820131,0.42771 0.620064,1.1161 -1.917088,8.30982 -4.035339,16.19526 -7.0687141,23.388787 -0.03346,0.459667 -0.532597,1.210347 0.272826,1.165716 4.6760361,-0.259146 7.0552801,-0.344296 10.2186451,-0.446442 0.759643,0.310997 2.396135,1.283501 2.777879,2.405845 -0.134907,0.419312 0.01304,0.553102 -1.28353,0.775075 -4.088622,0.273943 -7.258439,0.155428 -12.7795001,0.787473 -1.422015,0.483756 -3.092052,0.165725 -4.514059,0.297638 -0.375776,-0.187281 -0.93545,-0.02973 -0.818485,-1.140912 z"
         style="fill:#fee02d;fill-opacity:1;stroke:#fee02d;stroke-width:0.20998167;stroke-linecap:round;stroke-miterlimit:3.87096763;stroke-dasharray:none;stroke-dashoffset:0;stroke-opacity:1" />
      <path
         sodipodi:nodetypes="ccccccccccccsccccccccccccccc"
         inkscape:connector-curvature="0"
         id="path1440"
         d="m 17.959714,58.904399 -3.422741,0.02481 C 14.361502,58.765711 14.126878,58.66136 14.26414,58.18513 c 0.768585,-1.198634 0.888978,-2.07318 2.405844,-3.645959 0.04225,-0.228857 -0.157477,-0.297272 -0.272825,-0.421644 l -1.016905,0.04955 c -0.709185,-0.09701 -0.632224,-0.665672 -0.669665,-1.165708 l 3.718613,-1.663532 c 2.162904,-4.748049 5.912461,-9.421522 9.337274,-14.259692 0.288473,-0.483689 0.495737,-0.561261 0.691974,-0.583741 l 3.091076,-0.12277 c 0.68573,0.200253 0.228358,1.32823 0.126503,2.064209 -0.04061,0.154839 -0.166098,0.291371 -0.201348,0.444847 -0.598516,2.605978 -0.4722,5.355411 -0.543245,8.490499 0.03651,0.31818 0.173303,0.510974 0.396848,0.595335 1.413036,-0.390544 2.244959,-0.135407 3.273931,-0.09922 0.157565,0.190149 0.36912,0.380306 0.39684,0.570456 0.187135,-0.03383 0.324921,-0.03472 0.372037,0.02481 0.242281,0.38269 0.203977,0.730301 0.0744,1.066513 -1.300588,0.197205 -2.604924,0.380664 -4.042808,0.07443 -0.128716,0.07399 -0.35875,-0.07496 -0.272825,0.471238 0.01073,3.475502 0.111534,7.195472 0.768875,12.426063 -0.04977,0.07444 0.0298,0.148819 -0.322434,0.223224 -1.156015,0.226339 -2.122745,0.13721 -3.149924,0.148827 -0.194332,0.0022 -0.369661,-0.04313 -0.471241,-0.272825 -0.726613,-3.002348 -0.769278,-7.429588 -0.967296,-11.53318 -0.675373,0.20187 -3.564832,1.11794 -5.530963,1.736179 z"
         style="fill:#fee02d;fill-opacity:1;stroke:#fee02d;stroke-width:0.20998167;stroke-linecap:round;stroke-miterlimit:3.87096763;stroke-dasharray:none;stroke-dashoffset:0;stroke-opacity:1" />
      <path
         sodipodi:nodetypes="ccccccc"
         inkscape:connector-curvature="0"
         id="path1442"
         d="m 24.011532,49.305818 c -0.304612,0.01356 -0.260688,-0.234394 -0.19842,-0.49605 l 2.281837,-3.794792 c 0.34297,-0.426712 0.590574,-0.535556 0.79368,-0.496051 l 0.0992,3.447554 c -0.01282,0.516555 0.110722,0.595178 -0.570455,0.694477 z"
         style="fill:#eb0176;fill-opacity:1;stroke:#fee02d;stroke-width:0.20998167;stroke-linecap:round;stroke-miterlimit:3.87096763;stroke-dasharray:none;stroke-dashoffset:0;stroke-opacity:1" />
      <path
         sodipodi:nodetypes="cccccc"
         inkscape:connector-curvature="0"
         id="path1444"
         d="m 33.049443,67.080957 c 1.141887,0.344274 2.281825,0.653483 3.332226,-0.648907 0.994137,-5.282718 3.513224,-12.635003 5.752478,-19.607526 2.107482,-5.264344 4.049275,-10.324241 5.892778,-16.380522 -0.762654,-1.606934 -2.384501,-1.756967 -5.296486,0.280612 -5.319773,14.391002 -8.60625,26.673857 -9.680996,36.356343 z"
         style="fill:#fee02d;fill-opacity:1;stroke:#fee02d;stroke-width:0.20998167;stroke-linecap:round;stroke-miterlimit:3.87096763;stroke-dasharray:none;stroke-dashoffset:0;stroke-opacity:1" />
      <path
         sodipodi:nodetypes="ccccccccc"
         inkscape:connector-curvature="0"
         id="path1446"
         d="m 35.995832,71.693452 0.7366,-0.385828 -0.7366,-0.841828 c -1.672472,-1.353183 -3.436741,-2.016895 -5.927855,0.245532 -1.164546,0.943699 -1.242335,2.049583 -0.91198,3.086702 0.417241,1.104379 0.80517,1.896755 3.016544,2.455312 2.087081,0.25235 3.582368,-0.417576 4.454662,-1.753793 0.174415,-0.603673 0.496113,-1.036985 0.07016,-2.069492 z"
         style="fill:#fee02d;fill-opacity:1;stroke:#fee02d;stroke-width:0.20998167;stroke-linecap:round;stroke-miterlimit:3.87096763;stroke-dasharray:none;stroke-dashoffset:0;stroke-opacity:1" />
      <path
         sodipodi:nodetypes="ccccccccccccc"
         inkscape:connector-curvature="0"
         id="path1448"
         d="m 39.924353,63.064752 c 0.338129,0.277378 7.969314,-2.964737 8.979472,-6.208468 0.732305,-1.815964 0.987618,-3.393429 -0.140303,-4.279278 -1.635378,-0.310759 -3.157013,-1.133371 -4.419586,-3.121774 -0.579308,-2.204019 0.329716,-4.213903 1.894108,-6.138309 1.781523,-1.949314 3.050985,-4.414215 5.506944,-5.857704 3.778154,0.470061 4.166457,1.182272 4.068823,1.929189 -2.846055,2.607558 -4.598652,4.944012 -5.857702,6.804749 -0.615493,1.691756 -1.256456,2.351795 -0.315687,3.54268 1.701009,0.329885 3.488412,0.264801 4.559889,3.472536 0.220003,2.337795 0.835951,4.581327 -2.735934,7.821959 -2.340491,2.066034 -5.352863,3.88632 -8.348101,3.89345 -1.274784,-0.258288 -2.555613,-0.506213 -3.191923,-1.85903 z"
         style="fill:#fee02d;fill-opacity:1;stroke:#fee02d;stroke-width:0.20998167;stroke-linecap:round;stroke-miterlimit:3.87096763;stroke-dasharray:none;stroke-dashoffset:0;stroke-opacity:1" />
      <path
         sodipodi:nodetypes="ccccccccccc"
         inkscape:connector-curvature="0"
         id="path1450"
         d="m 62.066119,41.115907 c -1.291598,-0.192355 -3.123004,-0.308449 -4.182822,0.236763 -1.228207,8.02771 -1.291846,15.49845 -1.009424,22.80369 1.561265,0.847871 3.050557,0.809617 4.578679,0.07011 3.015472,-9.450024 7.992396,-17.588336 12.004517,-26.276227 0.07286,-0.415259 -0.05009,-0.777139 -0.491063,-1.052282 -0.932436,-0.153915 -1.86487,-0.307726 -2.797314,-0.09648 -0.214852,0.106043 -0.399249,0.04448 -0.701527,0.63136 -2.489574,5.819668 -5.682231,11.107371 -7.646577,16.134997 -0.511045,1.632312 -0.778235,0.681044 -0.736598,-0.24551 -0.12416,-3.286716 0.359091,-7.238568 0.982129,-12.206482 z"
         style="fill:#fee02d;fill-opacity:1;stroke:#fee02d;stroke-width:0.20998167;stroke-linecap:round;stroke-miterlimit:3.87096763;stroke-dasharray:none;stroke-dashoffset:0;stroke-opacity:1" />
      <path
         sodipodi:nodetypes="ccccccccccccccccsscccccccccccccccccccc"
         inkscape:connector-curvature="0"
         id="path1452"
         d="m 73.597377,63.450579 c -0.869974,-0.142955 -1.597843,0.12283 -3.595306,-1.367965 -0.870468,-0.287192 -0.901011,-1.026502 -0.754128,-1.68365 l 1.183825,-3.770673 c -0.01752,-0.333268 0.04956,-0.584464 -0.271843,-0.613828 -0.490002,-0.06438 -0.865755,0.08221 -1.753808,-0.210461 -0.215,-0.08084 -0.286436,-0.377102 -0.315687,-0.73659 l -0.210455,0.105223 c -0.200994,-0.08473 -0.322679,-0.232926 -0.175376,-0.596296 0.689612,-1.037208 1.832658,-1.016398 2.771013,-1.473189 0.448709,-0.14472 0.328862,-0.167334 0.690504,-0.224997 l 3.711531,-11.841175 c -0.294322,-0.521309 0.06562,-0.811935 0.122785,-1.157512 0.207347,-0.562237 0.567058,-0.883248 1.332893,-0.561216 0.222086,0.04679 0.238192,0.299642 0.280607,0.526137 2.495317,-0.8503 4.951999,-1.082555 7.401046,-1.192577 0.974304,0.351911 1.710176,0.719975 1.987014,1.410981 0.08609,0.214782 -0.100789,0.487675 0.292098,0.553541 0.203785,0.03413 0.134544,0.390872 0.176214,0.596028 l -0.911981,0.420914 -3.94606,0.438454 c -0.923469,0.215729 -2.219317,0.292712 -2.928844,1.350426 l -2.350094,6.980137 c 0.08431,0.199076 -0.233334,0.347895 0.526139,0.63136 1.818179,-0.426979 3.616873,-0.79549 5.296483,-0.806749 0.667017,-7.45e-4 1.14564,0.436934 1.683655,0.736606 0.130261,0.330869 0.13547,0.638982 -0.245531,0.876892 -0.503441,0.07602 -0.818814,0.152001 -1.753811,0.228001 l -5.647235,1.210124 c -0.608465,0.167379 -0.78168,0.528201 -0.982137,0.876907 l -1.139971,4.594962 c 0.04315,0.5261 -0.196919,1.16439 0.333221,0.982131 2.829062,-0.20193 4.803793,-0.0377 6.664452,0.175374 0.995101,0.369122 1.302821,0.921554 1.613499,1.473203 0.08053,0.608814 -0.296558,0.836322 -0.771673,0.982123 h -5.927857 c -0.440206,0.04933 -0.910071,-0.0052 -1.262734,0.350764 -0.240954,0.245532 -0.349588,0.491065 -1.122448,0.73659 z"
         style="fill:#fee02d;fill-opacity:1;stroke:#fee02d;stroke-width:0.20998167;stroke-linecap:round;stroke-miterlimit:3.87096763;stroke-dasharray:none;stroke-dashoffset:0;stroke-opacity:1" />
      <path
         sodipodi:nodetypes="ccccccccccccccccc"
         inkscape:connector-curvature="0"
         id="path1469"
         d="m 97.238647,40.580985 c 0.321503,-0.169548 0.412681,-0.674673 0.175382,-1.403037 -0.661612,-0.687802 -1.505914,-1.010251 -2.350097,-1.332887 -0.689947,-0.421383 -1.250262,-0.324222 -1.753815,0 -2.435112,1.880855 -4.975395,3.323539 -6.8749,7.436124 -0.956508,3.477968 0.52024,4.112897 1.227656,5.226337 1.304849,0.818521 2.296107,1.296793 3.507609,1.648577 0.302764,1.891651 0.07011,2.326715 -0.03509,3.402378 -1.602792,2.788327 -5.070248,5.654337 -8.7904,8.530891 -0.503274,0.28056 -0.285899,0.504909 -0.108887,0.927366 0.269985,0.65109 0.582122,1.297807 2.337958,1.795198 0.88268,0.378734 1.001791,0.132486 1.396514,-0.173877 2.912155,-1.648003 5.40999,-4.072826 7.690292,-6.90553 1.683016,-2.292247 2.778849,-4.81581 1.403053,-8.313031 -0.602212,-1.122426 -1.115817,-2.251423 -4.174063,-3.191925 l -0.526137,-1.332886 c 1.839651,-2.836535 4.39713,-4.479926 6.874914,-6.313698 z"
         style="fill:#fee02d;fill-opacity:1;stroke:#fee02d;stroke-width:0.20998167;stroke-linecap:round;stroke-miterlimit:3.87096763;stroke-dasharray:none;stroke-dashoffset:0;stroke-opacity:1" />
      <path
         sodipodi:nodetypes="cccccccccc"
         inkscape:connector-curvature="0"
         id="path1471"
         d="m 81.279033,37.213686 c 0.158274,0.264913 2.856611,0.003 2.771014,-0.368295 l 0.350763,-0.666454 c -0.0063,-0.471462 -0.125863,-0.74434 0.03506,-1.508268 0.58202,-0.26834 0.858166,-0.727843 1.069827,-1.227656 -0.179524,-0.562289 0.308136,-1.054189 -1.192581,-1.683642 -0.862028,-0.169719 -1.36531,-0.297533 -2.543013,0.438439 -0.75772,0.415892 -1.515241,1.333661 -1.806421,2.402708 -0.0084,0.741202 -0.15775,1.542475 0.455987,2.016873 0.374122,0.176849 0.839412,0.330898 0.85936,0.596295 z"
         style="fill:#fee02d;fill-opacity:1;stroke:#fee02d;stroke-width:0.20998167;stroke-linecap:round;stroke-miterlimit:3.87096763;stroke-dasharray:none;stroke-dashoffset:0;stroke-opacity:1" />
    </g>
  </g>
</svg>
